<svg width="501" height="462" viewBox="0 0 501 462" fill="none" xmlns="http://www.w3.org/2000/svg">
<path d="M492.73 105.084C500.737 116.494 502.538 129.404 498.135 143.815L415.568 415.834C411.765 428.644 404.109 439.403 392.6 448.11C381.091 456.817 368.831 461.17 355.82 461.17H78.6978C63.2855 461.17 48.4235 455.816 34.112 445.107C19.8006 434.399 9.84256 421.238 4.23806 405.626C-0.565801 392.215 -0.765962 379.505 3.63757 367.495C3.63757 366.694 3.93782 363.992 4.5383 359.389C5.13878 354.785 5.5391 351.082 5.73926 348.28C5.93942 346.678 5.63918 344.527 4.83854 341.825C4.0379 339.122 3.73765 337.171 3.93782 335.97C4.33814 333.768 5.13878 331.666 6.33974 329.665C7.54071 327.663 9.19204 325.311 11.2937 322.609C13.3954 319.907 15.0467 317.555 16.2477 315.553C20.8514 307.947 25.355 298.79 29.7586 288.081C34.1621 277.373 37.1645 268.215 38.7658 260.609C39.3663 258.608 39.4163 255.605 38.9159 251.602C38.4155 247.599 38.3655 244.797 38.7658 243.195C39.3663 240.994 41.0676 238.191 43.8699 234.789C46.6721 231.386 48.3735 229.084 48.974 227.883C53.1774 220.677 57.3807 211.47 61.5841 200.261C65.7875 189.052 68.2895 180.045 69.0901 173.239C69.2903 171.438 69.0401 168.235 68.3395 163.631C67.639 159.028 67.689 156.225 68.4897 155.225C69.2903 152.623 71.4921 149.57 75.095 146.067C78.6979 142.564 80.8996 140.313 81.7003 139.312C85.5033 134.108 89.7567 125.651 94.4605 113.942C99.1643 102.232 101.916 92.5743 102.717 84.9682C102.917 83.3669 102.617 80.8149 101.816 77.3121C101.016 73.8093 100.816 71.1571 101.216 69.3557C101.616 67.7544 102.517 65.953 103.918 63.9514C105.319 61.9497 107.121 59.6479 109.322 57.0458C111.524 54.4437 113.226 52.342 114.427 50.7407C116.028 48.3388 117.679 45.2864 119.381 41.5834C121.082 37.8804 122.583 34.3776 123.884 31.075C125.185 27.7723 126.786 24.1694 128.688 20.2663C130.59 16.3631 132.541 13.1606 134.543 10.6586C136.544 8.15655 139.196 5.80466 142.499 3.60289C145.802 1.40113 149.405 0.250201 153.308 0.150121C157.211 0.0500402 161.965 0.600482 167.569 1.80145L167.269 2.70217C174.875 0.900723 179.979 0 182.581 0H411.065C425.877 0 437.286 5.6045 445.292 16.8135C453.299 28.0225 455.1 41.033 450.697 55.8448L368.431 327.863C361.225 351.682 354.069 367.045 346.963 373.95C339.858 380.856 326.997 384.309 308.382 384.309H47.4728C42.0684 384.309 38.2654 385.81 36.0636 388.812C33.8618 392.015 33.7618 396.318 35.7634 401.723C40.5672 415.734 54.9788 422.739 78.9981 422.739H356.121C361.925 422.739 367.53 421.188 372.934 418.086C378.338 414.983 381.841 410.83 383.443 405.626L473.515 109.288C474.916 104.884 475.416 99.1796 475.016 92.174C482.622 95.1764 488.527 99.4799 492.73 105.084ZM173.274 105.685C172.473 108.287 172.673 110.539 173.874 112.44C175.075 114.342 177.077 115.293 179.879 115.293H362.426C365.028 115.293 367.58 114.342 370.082 112.44C372.584 110.539 374.235 108.287 375.036 105.685L381.341 86.4694C382.142 83.8674 381.941 81.6155 380.74 79.714C379.539 77.8125 377.538 76.8617 374.736 76.8617H192.189C189.587 76.8617 187.035 77.8125 184.533 79.714C182.031 81.6155 180.38 83.8674 179.579 86.4694L173.274 105.685ZM148.354 182.547C147.553 185.149 147.753 187.4 148.954 189.302C150.155 191.204 152.157 192.154 154.959 192.154H337.506C340.108 192.154 342.66 191.204 345.162 189.302C347.664 187.4 349.315 185.149 350.116 182.547L356.421 163.331C357.222 160.729 357.021 158.477 355.82 156.576C354.619 154.674 352.618 153.723 349.816 153.723H167.269C164.667 153.723 162.115 154.674 159.613 156.576C157.111 158.477 155.459 160.729 154.659 163.331L148.354 182.547Z" fill="white"/>
</svg>
