<svg width="60" height="60" viewBox="0 0 60 60" fill="none" xmlns="http://www.w3.org/2000/svg">
<path d="M30 60C46.5685 60 60 46.5685 60 30C60 13.4315 46.5685 0 30 0C13.4315 0 0 13.4315 0 30C0 46.5685 13.4315 60 30 60Z" fill="#03045E"/>
<path d="M7.5 30C7.515 17.5781 17.6344 7.515 30.12 7.5C42.5194 7.63125 52.5 17.6663 52.5 30C52.5 42.3319 42.5212 52.3669 30.1256 52.5C23.1619 52.5 18.2981 50.7225 14.8162 46.905C14.8162 46.905 20.7806 50.745 30.0788 49.6087C41.7056 48.1969 49.8375 40.1644 49.8375 30C49.8319 28.8563 49.725 27.7125 49.5188 26.5875L49.3463 25.7156C48.9056 23.7563 48.1612 21.8756 47.1431 20.1412L46.6781 19.3931C45.2584 17.1989 43.4158 15.3095 41.2579 13.8351C39.1001 12.3607 36.6702 11.3308 34.11 10.8056C31.5468 10.2776 28.9043 10.2639 26.3357 10.7654C23.7672 11.2669 21.3239 12.2735 19.1475 13.7269L18.4312 14.2313C15.9361 16.0643 13.9066 18.458 12.5063 21.2194L12.1406 22.0106C11.0062 24.5212 10.4213 27.2456 10.4213 30V30.4275L10.4359 30.4323L10.4681 31.4156C10.5308 32.1868 10.6455 32.953 10.8112 33.7087L11.0569 34.6519C12.42 39.4069 15.8437 42.8194 20.0662 43.1681C26.8162 43.7269 33.6094 38.6006 33.6787 38.5481L33.96 38.3325C36.2231 36.3488 38.8106 32.8369 39.0169 27.1181L30.2175 21.1106L21.4163 27.1181C21.6713 34.1944 25.5319 37.9144 28.1944 39.6356C27.1537 40.095 26.085 40.4906 25.0163 40.875C24.69 40.6106 24.3769 40.3331 24.0788 40.0519C21.5269 37.6481 18.4894 33.3244 18.4894 26.3644V25.6012L30.2175 17.5987L41.9438 25.5994V26.3681C41.9438 33.3244 38.9044 37.6519 36.3525 40.0556C36.1575 40.2412 35.9531 40.4231 35.7337 40.6125L35.4412 40.8544C34.0938 41.9794 32.5811 42.8901 30.9563 43.5544C28.2338 44.8913 24.0994 46.4062 19.8244 46.0556C12.7969 45.4762 7.5 38.5763 7.5 30Z" fill="white"/>
</svg>
