<svg width="451" height="501" viewBox="0 0 451 501" fill="none" xmlns="http://www.w3.org/2000/svg">
<path d="M125.013 37.5038C125.013 27.5571 128.964 18.0179 135.997 10.9846C143.031 3.95128 152.57 0 162.516 0H287.529C297.476 0 307.015 3.95128 314.048 10.9846C321.081 18.0179 325.033 27.5571 325.033 37.5038V62.5063C325.033 72.4529 321.081 81.9921 314.048 89.0254C307.015 96.0587 297.476 100.01 287.529 100.01H162.516C152.57 100.01 143.031 96.0587 135.997 89.0254C128.964 81.9921 125.013 72.4529 125.013 62.5063V37.5038Z" fill="white"/>
<path fill-rule="evenodd" clip-rule="evenodd" d="M87.5088 50.9326C56.0556 52.6828 36.2036 57.6833 21.9772 71.9347C-1.49027e-06 93.9119 0 129.265 0 199.973V349.988C0 420.72 -1.49027e-06 456.073 21.9772 478.05C43.9294 500.003 79.3079 500.002 150.015 500.002H300.03C370.737 500.002 406.116 500.003 428.068 478.05C450.045 456.048 450.045 420.72 450.045 349.988V199.973C450.045 129.265 450.045 93.9119 428.068 71.9347C413.841 57.6833 393.989 52.6828 362.536 50.9326V62.5088C362.536 82.402 354.634 101.48 340.567 115.547C326.5 129.614 307.422 137.516 287.529 137.516H162.516C142.623 137.516 123.545 129.614 109.478 115.547C95.4113 101.48 87.5088 82.402 87.5088 62.5088V50.9326ZM81.2581 212.524C81.2581 207.55 83.2338 202.781 86.7504 199.264C90.2671 195.748 95.0367 193.772 100.01 193.772H350.035C355.008 193.772 359.778 195.748 363.295 199.264C366.811 202.781 368.787 207.55 368.787 212.524C368.787 217.497 366.811 222.267 363.295 225.783C359.778 229.3 355.008 231.276 350.035 231.276H100.01C95.0367 231.276 90.2671 229.3 86.7504 225.783C83.2338 222.267 81.2581 217.497 81.2581 212.524ZM106.261 300.033C106.261 295.059 108.236 290.29 111.753 286.773C115.27 283.256 120.039 281.281 125.013 281.281H325.033C330.006 281.281 334.775 283.256 338.292 286.773C341.809 290.29 343.784 295.059 343.784 300.033C343.784 305.006 341.809 309.775 338.292 313.292C334.775 316.809 330.006 318.784 325.033 318.784H125.013C120.039 318.784 115.27 316.809 111.753 313.292C108.236 309.775 106.261 305.006 106.261 300.033ZM131.263 387.541C131.263 382.568 133.239 377.798 136.755 374.282C140.272 370.765 145.042 368.789 150.015 368.789H300.03C305.003 368.789 309.773 370.765 313.29 374.282C316.806 377.798 318.782 382.568 318.782 387.541C318.782 392.515 316.806 397.284 313.29 400.801C309.773 404.318 305.003 406.293 300.03 406.293H150.015C145.042 406.293 140.272 404.318 136.755 400.801C133.239 397.284 131.263 392.515 131.263 387.541Z" fill="white"/>
</svg>
