<svg width="500" height="500" viewBox="0 0 500 500" fill="none" xmlns="http://www.w3.org/2000/svg">
<path d="M250 0C283.152 0 314.946 13.1696 338.388 36.6116C361.83 60.0537 375 91.8479 375 125C375 158.152 361.83 189.946 338.388 213.388C314.946 236.83 283.152 250 250 250C216.848 250 185.054 236.83 161.612 213.388C138.17 189.946 125 158.152 125 125C125 91.8479 138.17 60.0537 161.612 36.6116C185.054 13.1696 216.848 0 250 0ZM250 312.5C388.125 312.5 500 368.437 500 437.5V500H0V437.5C0 368.437 111.875 312.5 250 312.5Z" fill="white"/>
</svg>
